<svg xmlns="http://www.w3.org/2000/svg" xmlns:xlink="http://www.w3.org/1999/xlink" version="1.1" x="0px" y="0px" viewBox="0 0 24 30" style="enable-background:new 0 0 24 24;" xml:space="preserve"><path d="M21.538,3.609l-1.084-1.084c-0.806-0.806-2.211-0.806-3.017,0l-1.402,1.402c-0.001,0.001-0.003,0.003-0.004,0.004  s-0.003,0.003-0.004,0.004L7.68,12.281c-0.092,0.092-0.151,0.211-0.169,0.339l-0.542,3.794c-0.027,0.187,0.036,0.375,0.169,0.509  C7.251,17.038,7.404,17.1,7.562,17.1c0.028,0,0.057-0.002,0.085-0.006l3.794-0.542c0.128-0.018,0.248-0.078,0.339-0.169l8.346-8.347  c0.001-0.001,0.003-0.003,0.004-0.004s0.003-0.003,0.004-0.004l1.402-1.402c0.403-0.403,0.625-0.938,0.625-1.508  S21.94,4.012,21.538,3.609z M11.074,15.392L8.27,15.793l0.401-2.805l7.785-7.784l2.403,2.403L11.074,15.392z M20.689,5.777  l-0.982,0.982l-2.403-2.403l0.982-0.982c0.353-0.354,0.967-0.354,1.319,0l1.084,1.084c0.177,0.176,0.273,0.411,0.273,0.66  S20.866,5.601,20.689,5.777z M21.038,12.5v5c0,2.537-2.063,4.6-4.6,4.6h-10c-2.537,0-4.6-2.063-4.6-4.6v-10  c0-2.537,2.063-4.6,4.6-4.6h5c0.332,0,0.6,0.269,0.6,0.6s-0.269,0.6-0.6,0.6h-5c-1.875,0-3.4,1.525-3.4,3.4v10  c0,1.875,1.525,3.4,3.4,3.4h10c1.875,0,3.4-1.525,3.4-3.4v-5c0-0.332,0.269-0.6,0.6-0.6S21.038,12.168,21.038,12.5z"/><text x="0" y="39" fill="#000000" font-size="5px" font-weight="bold" font-family="'Helvetica Neue', Helvetica, Arial-Unicode, Arial, Sans-serif">Created by Hare Krishna</text><text x="0" y="44" fill="#000000" font-size="5px" font-weight="bold" font-family="'Helvetica Neue', Helvetica, Arial-Unicode, Arial, Sans-serif">from the Noun Project</text></svg>