<svg xmlns="http://www.w3.org/2000/svg" data-name="Layer 1" viewBox="0 0 32 40" x="0px" y="0px"><title>Profile</title><path d="M31,16.19A15,15,0,1,0,6.21,27.35h0a15,15,0,0,0,19.28.24h0A14.92,14.92,0,0,0,31,16.19ZM3,15.84a13,13,0,1,1,22.9,8.58v-.3A6,6,0,0,0,20,18L12,18A6,6,0,0,0,5.9,23.88v.3A12.93,12.93,0,0,1,3,15.84Z"/><circle cx="16.06" cy="11" r="5" transform="translate(4.86 26.92) rotate(-89.29)"/><text x="0" y="47" fill="#000000" font-size="5px" font-weight="bold" font-family="'Helvetica Neue', Helvetica, Arial-Unicode, Arial, Sans-serif">Created by Yoyon Pujiyono</text><text x="0" y="52" fill="#000000" font-size="5px" font-weight="bold" font-family="'Helvetica Neue', Helvetica, Arial-Unicode, Arial, Sans-serif">from the Noun Project</text></svg>