<svg xmlns="http://www.w3.org/2000/svg" xmlns:xlink="http://www.w3.org/1999/xlink" version="1.1" x="0px" y="0px" viewBox="0 0 512 640" style="enable-background:new 0 0 512 512;" xml:space="preserve"><g><path d="M324.3,235.8c39.6-28.4,67.5-78.8,71.9-127.8h13.5c12.1,0,22.3-9.9,22.3-22V28.9   c0-6.6-5.7-11.9-12.3-11.9H92.3C85.7,17,80,22.3,80,28.9V86c0,12.1,10.2,22,22.3,22h13.5c4.4,49,32.3,99.4,71.9,127.8   c6.4,4.6,10.2,12.1,10.2,20.2c0,8.1-3.8,15.6-10.2,20.2c-39.6,28.4-67.5,78.8-71.9,127.8h-13.5c-12.1,0-22.3,9.9-22.3,22v57.1   c0,6.6,5.7,11.9,12.3,11.9h327.4c6.6,0,12.3-5.3,12.3-11.9V426c0-12.1-10.2-22-22.3-22h-13.5c-4.4-49-32.3-99.4-71.9-127.8   c-6.4-4.6-10.2-12.1-10.2-20.2C314.1,247.9,317.9,240.4,324.3,235.8z M104,41h304v43H104V41z M408,471H104v-43h304V471z    M310.3,295.7c33.1,23.7,57.3,67.3,61.8,108.3H139.9c4.4-41,28.7-84.6,61.8-108.3c12.7-9.1,20.2-23.9,20.2-39.7   c0-15.8-7.6-30.6-20.2-39.7c-33.1-23.7-57.4-67.3-61.8-108.3h232.1c-4.4,41-28.7,84.6-61.8,108.3c-12.7,9.1-20.2,23.9-20.2,39.7   C290.1,271.8,297.6,286.6,310.3,295.7z"/></g><text x="0" y="527" fill="#000000" font-size="5px" font-weight="bold" font-family="'Helvetica Neue', Helvetica, Arial-Unicode, Arial, Sans-serif">Created by Chandru</text><text x="0" y="532" fill="#000000" font-size="5px" font-weight="bold" font-family="'Helvetica Neue', Helvetica, Arial-Unicode, Arial, Sans-serif">from the Noun Project</text></svg>